<svg xmlns="http://www.w3.org/2000/svg" viewBox="0 0 400 400" width="400" height="400" preserveAspectRatio="xMidYMid meet" style="width: 100%; height: 100%; transform: translate3d(0px, 0px, 0px); content-visibility: visible;"><defs><clipPath id="__lottie_element_3"><rect width="400" height="400" x="0" y="0"></rect></clipPath></defs><g clip-path="url(#__lottie_element_3)"><g transform="matrix(1,0,0,1,0.75,-0.25)" opacity="1" style="display: block;"><g opacity="0.1" transform="matrix(1,0,0,1,145.8300018310547,391.0249938964844)"><path fill="rgb(43,43,43)" fill-opacity="1" d=" M142.83999633789062,-1.375 C142.83999633789062,-1.375 -3.7899999618530273,-9.22599983215332 -3.7899999618530273,-9.22599983215332 C-3.7899999618530273,-9.22599983215332 -142.83999633789062,-1.0850000381469727 -142.83999633789062,-1.0850000381469727 C-142.83999633789062,-1.0850000381469727 -9.989999771118164,9.225000381469727 -9.989999771118164,9.225000381469727 C-9.989999771118164,9.225000381469727 142.83999633789062,-1.375 142.83999633789062,-1.375z"></path></g></g><g transform="matrix(1,-0.0000017601648778509116,0.0000017601648778509116,1,0.7495880126953125,-0.249725341796875)" opacity="1" style="display: block;"><g opacity="1" transform="matrix(1,0,0,1,0,0)"><g opacity="1" transform="matrix(1,0,0,1,196.91000366210938,47.59000015258789)"><path fill="rgb(39,120,139)" fill-opacity="1" d=" M47.20000076293945,-22.969999313354492 C47.20000076293945,-22.969999313354492 -24.579999923706055,22.969999313354492 -24.579999923706055,22.969999313354492 C-24.579999923706055,22.969999313354492 -39.1510009765625,9.260000228881836 -39.1510009765625,9.260000228881836 C-39.1510009765625,9.260000228881836 -47.20000076293945,-4.349999904632568 -47.20000076293945,-4.349999904632568 C-47.20000076293945,-4.349999904632568 -38.91999816894531,-10.34000015258789 -38.91999816894531,-10.34000015258789 C-38.91999816894531,-10.34000015258789 47.20000076293945,-22.969999313354492 47.20000076293945,-22.969999313354492z"></path></g><g opacity="1" transform="matrix(1,0,0,1,77.2249984741211,83.1500015258789)"><path fill="rgb(57,159,185)" fill-opacity="1" d=" M38.80500030517578,-25.59000015258789 C38.80500030517578,-25.59000015258789 27.315000534057617,-23.299999237060547 27.315000534057617,-23.299999237060547 C27.315000534057617,-23.299999237060547 -42.3849983215332,25.59000015258789 -42.3849983215332,25.59000015258789 C-42.3849983215332,25.59000015258789 41.89500045776367,8.6899995803833 41.89500045776367,8.6899995803833 C41.89500045776367,8.6899995803833 42.3849983215332,-11.489999771118164 42.3849983215332,-11.489999771118164 C42.3849983215332,-11.489999771118164 38.80500030517578,-25.59000015258789 38.80500030517578,-25.59000015258789z"></path></g><g opacity="1" transform="matrix(1,0,0,1,144.17999267578125,67.53900146484375)"><path fill="rgb(48,143,166)" fill-opacity="1" d=" M-25.059999465942383,24.299999237060547 C-25.059999465942383,24.299999237060547 28.149999618530273,3.0199999809265137 28.149999618530273,3.0199999809265137 C28.149999618530273,3.0199999809265137 5.53000020980835,-24.299999237060547 5.53000020980835,-24.299999237060547 C5.53000020980835,-24.299999237060547 -11.899999618530273,-19.700000762939453 -11.899999618530273,-19.700000762939453 C-11.899999618530273,-19.700000762939453 -28.149999618530273,-9.979999542236328 -28.149999618530273,-9.979999542236328 C-28.149999618530273,-9.979999542236328 -25.059999465942383,24.299999237060547 -25.059999465942383,24.299999237060547z"></path></g><g opacity="1" transform="matrix(1,0,0,1,144.60499572753906,74.60900115966797)"><path fill="rgb(94,192,217)" fill-opacity="1" d=" M0.7649999856948853,-5.789999961853027 C0.7649999856948853,-5.789999961853027 -16.96500015258789,-33.599998474121094 -16.96500015258789,-33.599998474121094 C-16.96500015258789,-33.599998474121094 -8.265000343322754,2.25 -8.265000343322754,2.25 C-8.265000343322754,2.25 6.074999809265137,33.599998474121094 6.074999809265137,33.599998474121094 C6.074999809265137,33.599998474121094 18.947999954223633,65.59300231933594 18.947999954223633,65.59300231933594 C18.947999954223633,65.59300231933594 28.170000076293945,58.80400085449219 28.170000076293945,58.80400085449219 C28.170000076293945,58.80400085449219 16.96500015258789,31.940000534057617 16.96500015258789,31.940000534057617 C16.96500015258789,31.940000534057617 0.7649999856948853,-5.789999961853027 0.7649999856948853,-5.789999961853027z"></path></g><g opacity="1" transform="matrix(1,0,0,1,135.48500061035156,62.665000915527344)"><path fill="rgb(57,159,185)" fill-opacity="1" d=" M1.3350000381469727,-14.194999694824219 C1.3350000381469727,-14.194999694824219 -9.885000228881836,-9.21500015258789 -9.885000228881836,-9.21500015258789 C-9.885000228881836,-9.21500015258789 0.8550000190734863,14.194999694824219 0.8550000190734863,14.194999694824219 C0.8550000190734863,14.194999694824219 9.885000228881836,6.15500020980835 9.885000228881836,6.15500020980835 C9.885000228881836,6.15500020980835 1.3350000381469727,-14.194999694824219 1.3350000381469727,-14.194999694824219z"></path></g><g opacity="1" transform="matrix(1,0,0,1,131.09500122070312,34.64500045776367)"><path fill="rgb(94,192,217)" fill-opacity="1" d=" M25.635000228881836,5.625 C25.635000228881836,5.625 -24.905000686645508,27.024999618530273 -24.905000686645508,27.024999618530273 C-24.905000686645508,27.024999618530273 -25.635000228881836,6.164999961853027 -25.635000228881836,6.164999961853027 C-25.635000228881836,6.164999961853027 -20.895000457763672,-22.815000534057617 -20.895000457763672,-22.815000534057617 C-20.895000457763672,-22.815000534057617 -15.625,-27.024999618530273 -15.625,-27.024999618530273 C-15.625,-27.024999618530273 -10.164999961853027,-26.78499984741211 -10.164999961853027,-26.78499984741211 C-10.164999961853027,-26.78499984741211 12.835000038146973,-9.954999923706055 12.835000038146973,-9.954999923706055 C12.835000038146973,-9.954999923706055 25.635000228881836,5.625 25.635000228881836,5.625z"></path></g><g opacity="1" transform="matrix(1,0,0,1,182.52000427246094,24.06399917602539)"><path fill="rgb(57,159,185)" fill-opacity="1" d=" M-61.59000015258789,-16.204999923706055 C-61.59000015258789,-16.204999923706055 61.59000015258789,0.5550000071525574 61.59000015258789,0.5550000071525574 C61.59000015258789,0.5550000071525574 -25.790000915527344,16.204999923706055 -25.790000915527344,16.204999923706055 C-25.790000915527344,16.204999923706055 -61.59000015258789,-16.204999923706055 -61.59000015258789,-16.204999923706055z"></path></g><g opacity="1" transform="matrix(1,0,0,1,72.5199966430664,60.28499984741211)"><path fill="rgb(48,143,166)" fill-opacity="1" d=" M37.68000030517578,-48.45500183105469 C37.68000030517578,-48.45500183105469 -37.68000030517578,48.45500183105469 -37.68000030517578,48.45500183105469 C-37.68000030517578,48.45500183105469 33.66999816894531,1.3849999904632568 33.66999816894531,1.3849999904632568 C33.66999816894531,1.3849999904632568 37.68000030517578,-48.45500183105469 37.68000030517578,-48.45500183105469z"></path></g><g opacity="1" transform="matrix(1,0,0,1,114.18000030517578,6.039999961853027)"><path fill="rgb(57,159,185)" fill-opacity="1" d=" M3.819999933242798,-5.789999961853027 C3.819999933242798,-5.789999961853027 -6.75,-1.9600000381469727 -6.75,-1.9600000381469727 C-6.75,-1.9600000381469727 -3.9790000915527344,5.789999961853027 -3.9790000915527344,5.789999961853027 C-3.9790000915527344,5.789999961853027 6.75,1.8200000524520874 6.75,1.8200000524520874 C6.75,1.8200000524520874 3.819999933242798,-5.789999961853027 3.819999933242798,-5.789999961853027z"></path></g></g></g><g transform="matrix(1,0,0,1,0.75,-0.25)" opacity="1" style="display: block;"><g opacity="1" transform="matrix(1,0,0,1,0,0)"><g opacity="1" transform="matrix(1,0.0000029989330414537108,-0.0000029989330414537108,1,0.0010833740234375,-0.000244140625)"><g opacity="1" transform="matrix(1,0,0,1,103.70500183105469,344.4049987792969)"><path fill="rgb(28,118,120)" fill-opacity="1" d=" M-30.795000076293945,-16.5049991607666 C-30.795000076293945,-16.5049991607666 -25.9950008392334,16.5049991607666 -25.9950008392334,16.5049991607666 C-25.9950008392334,16.5049991607666 2.075000047683716,12.223999977111816 2.075000047683716,12.223999977111816 C2.075000047683716,12.223999977111816 30.795000076293945,2.625 30.795000076293945,2.625 C30.795000076293945,2.625 -0.29499998688697815,-9.414999961853027 -0.29499998688697815,-9.414999961853027 C-0.29499998688697815,-9.414999961853027 -20.2450008392334,-14.052000045776367 -20.2450008392334,-14.052000045776367 C-20.2450008392334,-14.052000045776367 -30.795000076293945,-16.5049991607666 -30.795000076293945,-16.5049991607666z"></path></g><g opacity="1" transform="matrix(1,0,0,1,106.1050033569336,357.8500061035156)"><path fill="rgb(54,147,149)" fill-opacity="1" d=" M-28.395000457763672,3.059999942779541 C-28.395000457763672,3.059999942779541 -7.934999942779541,9.270000457763672 -7.934999942779541,9.270000457763672 C-7.934999942779541,9.270000457763672 3.884999990463257,10.819999694824219 3.884999990463257,10.819999694824219 C3.884999990463257,10.819999694824219 28.395000457763672,-10.819999694824219 28.395000457763672,-10.819999694824219 C28.395000457763672,-10.819999694824219 -28.395000457763672,3.059999942779541 -28.395000457763672,3.059999942779541z"></path></g></g><g opacity="1" transform="matrix(1,0,0,1,106.70999908447266,375.22900390625)"><path fill="rgb(21,94,95)" fill-opacity="1" d=" M3.2799999713897705,-6.559999942779541 C3.2799999713897705,-6.559999942779541 30.81999969482422,12.5600004196167 30.81999969482422,12.5600004196167 C30.81999969482422,12.5600004196167 -1.4900000095367432,14.319999694824219 -1.4900000095367432,14.319999694824219 C-1.4900000095367432,14.319999694824219 -30.81999969482422,12.5600004196167 -30.81999969482422,12.5600004196167 C-30.81999969482422,12.5600004196167 -29,-14.319999694824219 -29,-14.319999694824219 C-29,-14.319999694824219 3.2799999713897705,-6.559999942779541 3.2799999713897705,-6.559999942779541z"></path></g><g opacity="1" transform="matrix(1,0,0,1,106.70999908447266,391.05499267578125)"><path fill="rgb(28,118,120)" fill-opacity="1" d=" M-30.81999969482422,-3.265000104904175 C-30.81999969482422,-3.265000104904175 30.81999969482422,-3.265000104904175 30.81999969482422,-3.265000104904175 C30.81999969482422,-3.265000104904175 30.81999969482422,3.265000104904175 30.81999969482422,3.265000104904175 C30.81999969482422,3.265000104904175 -30.81999969482422,3.265000104904175 -30.81999969482422,3.265000104904175 C-30.81999969482422,3.265000104904175 -30.81999969482422,-3.265000104904175 -30.81999969482422,-3.265000104904175z"></path></g></g></g><g transform="matrix(1,-0.0000017601648778509116,0.0000017601648778509116,1,0.7495880126953125,-0.249725341796875)" opacity="1" style="display: block;"><g opacity="1" transform="matrix(1,0,0,1,0,0)"><g opacity="1" transform="matrix(1,0,0,1,253.82000732421875,219.6439971923828)"><path fill="rgb(80,169,170)" fill-opacity="1" d=" M15.970000267028809,-39.80500030517578 C15.970000267028809,-39.80500030517578 -11.539999961853027,-11.96500015258789 -11.539999961853027,-11.96500015258789 C-11.539999961853027,-11.96500015258789 -24.829999923706055,16.614999771118164 -24.829999923706055,16.614999771118164 C-24.829999923706055,16.614999771118164 12.829999923706055,39.80500030517578 12.829999923706055,39.80500030517578 C12.829999923706055,39.80500030517578 24.829999923706055,10.444999694824219 24.829999923706055,10.444999694824219 C24.829999923706055,10.444999694824219 23.579999923706055,-13.074999809265137 23.579999923706055,-13.074999809265137 C23.579999923706055,-13.074999809265137 15.970000267028809,-39.80500030517578 15.970000267028809,-39.80500030517578z"></path></g></g></g><g transform="matrix(1,-0.0000017601648778509116,0.0000017601648778509116,1,0.7495880126953125,-0.249725341796875)" opacity="1" style="display: block;"><g opacity="1" transform="matrix(1,0,0,1,0,0)"><g opacity="1" transform="matrix(1,0,0,1,294.93499755859375,230.09500122070312)"><path fill="rgb(113,202,204)" fill-opacity="1" d=" M-17.534000396728516,-23.524999618530273 C-17.534000396728516,-23.524999618530273 -5.984000205993652,-23.524999618530273 -5.984000205993652,-23.524999618530273 C-5.984000205993652,-23.524999618530273 26.43600082397461,-23.524999618530273 26.43600082397461,-23.524999618530273 C26.43600082397461,-23.524999618530273 28.28499984741211,-14.364999771118164 28.28499984741211,-14.364999771118164 C28.28499984741211,-14.364999771118164 24.815000534057617,2.325000047683716 24.815000534057617,2.325000047683716 C24.815000534057617,2.325000047683716 -28.284000396728516,29.354999542236328 -28.284000396728516,29.354999542236328 C-28.284000396728516,29.354999542236328 -17.534000396728516,-23.524999618530273 -17.534000396728516,-23.524999618530273z"></path></g></g></g><g transform="matrix(1,-0.0000017601648778509116,0.0000017601648778509116,1,0.7495880126953125,-0.249725341796875)" opacity="1" style="display: block;"><g opacity="1" transform="matrix(1,0,0,1,0,0)"><g opacity="1" transform="matrix(1,0,0,1,341.4649963378906,218.718994140625)"><path fill="rgb(195,151,122)" fill-opacity="1" d=" M-22.954999923706055,-12.149999618530273 C-22.954999923706055,-12.149999618530273 -4.045000076293945,-13.701000213623047 -4.045000076293945,-13.701000213623047 C-4.045000076293945,-13.701000213623047 22.954999923706055,-12.149999618530273 22.954999923706055,-12.149999618530273 C22.954999923706055,-12.149999618530273 -21.71500015258789,13.701000213623047 -21.71500015258789,13.701000213623047 C-21.71500015258789,13.701000213623047 -22.954999923706055,-12.149999618530273 -22.954999923706055,-12.149999618530273z"></path></g></g><g opacity="1" transform="matrix(1,0,0,1,0,0)"><path fill="rgb(139,102,81)" fill-opacity="1" d=" M382.18798828125,198.49400329589844 C382.18798828125,198.49400329589844 358.0780029296875,197.81700134277344 358.0780029296875,197.81700134277344 C358.0780029296875,197.81700134277344 337.0350036621094,204.6929931640625 337.0350036621094,204.6929931640625 C337.0350036621094,204.6929931640625 337.07501220703125,204.83999633789062 337.07501220703125,204.83999633789062 C337.07501220703125,204.83999633789062 364.2120056152344,206.8260040283203 364.2120056152344,206.8260040283203 C364.2120056152344,206.8260040283203 382.18798828125,198.49400329589844 382.18798828125,198.49400329589844z"></path></g></g><g transform="matrix(1,-0.000005037329174228944,0.000005037329174228944,1,0.74871826171875,-0.24951171875)" opacity="1" style="display: block;"><g opacity="1" transform="matrix(1,0,0,1,0,0)"><g opacity="1" transform="matrix(1,0,0,1,10.625,303.864013671875)"><path fill="rgb(28,118,120)" fill-opacity="1" d=" M10.375,-16.874000549316406 C10.375,-16.874000549316406 0.1850000023841858,-36.14500045776367 0.1850000023841858,-36.14500045776367 C0.1850000023841858,-36.14500045776367 -7.644999980926514,-37.474998474121094 -7.644999980926514,-37.474998474121094 C-7.644999980926514,-37.474998474121094 -10.375,37.404998779296875 -10.375,37.404998779296875 C-10.375,37.404998779296875 -3.9549999237060547,37.474998474121094 -3.9549999237060547,37.474998474121094 C-3.9549999237060547,37.474998474121094 10.375,-16.874000549316406 10.375,-16.874000549316406z"></path></g><g opacity="1" transform="matrix(1,0,0,1,49.689998626708984,292.864990234375)"><path fill="rgb(54,147,149)" fill-opacity="1" d=" M15.029999732971191,-29.94499969482422 C15.029999732971191,-29.94499969482422 -17.760000228881836,-21.084999084472656 -17.760000228881836,-21.084999084472656 C-17.760000228881836,-21.084999084472656 -9.859999656677246,1.065000057220459 -9.859999656677246,1.065000057220459 C-9.859999656677246,1.065000057220459 7.199999809265137,29.94499969482422 7.199999809265137,29.94499969482422 C7.199999809265137,29.94499969482422 16.059999465942383,6.605000019073486 16.059999465942383,6.605000019073486 C16.059999465942383,6.605000019073486 17.760000228881836,-9.864999771118164 17.760000228881836,-9.864999771118164 C17.760000228881836,-9.864999771118164 15.029999732971191,-29.94499969482422 15.029999732971191,-29.94499969482422z"></path></g><g opacity="1" transform="matrix(1,0,0,1,41.45500183105469,297.29400634765625)"><path fill="rgb(28,118,120)" fill-opacity="1" d=" M-9.524999618530273,-25.513999938964844 C-9.524999618530273,-25.513999938964844 -15.4350004196167,-5.133999824523926 -15.4350004196167,-5.133999824523926 C-15.4350004196167,-5.133999824523926 -15.28499984741211,13.545999526977539 -15.28499984741211,13.545999526977539 C-15.28499984741211,13.545999526977539 15.4350004196167,25.513999938964844 15.4350004196167,25.513999938964844 C15.4350004196167,25.513999938964844 -9.524999618530273,-25.513999938964844 -9.524999618530273,-25.513999938964844z"></path></g><g opacity="1" transform="matrix(1,0,0,1,19.299999237060547,304.52899169921875)"><path fill="rgb(21,94,95)" fill-opacity="1" d=" M6.869999885559082,6.309999942779541 C6.869999885559082,6.309999942779541 -12.630000114440918,36.810001373291016 -12.630000114440918,36.810001373291016 C-12.630000114440918,36.810001373291016 -8.489999771118164,-36.810001373291016 -8.489999771118164,-36.810001373291016 C-8.489999771118164,-36.810001373291016 12.630000114440918,-32.75 12.630000114440918,-32.75 C12.630000114440918,-32.75 6.869999885559082,6.309999942779541 6.869999885559082,6.309999942779541z"></path></g></g></g><g transform="matrix(1,-0.0000017601648778509116,0.0000017601648778509116,1,0.7495880126953125,-0.249725341796875)" opacity="1" style="display: block;"><g opacity="1" transform="matrix(1,0,0,1,0,0)"><g opacity="1" transform="matrix(1,0,0,1,70.73500061035156,245.60000610351562)"><path fill="rgb(28,118,120)" fill-opacity="1" d=" M-13.255000114440918,-37.400001525878906 C-13.255000114440918,-37.400001525878906 -6.014999866485596,17.31999969482422 -6.014999866485596,17.31999969482422 C-6.014999866485596,17.31999969482422 -3.2850000858306885,37.400001525878906 -3.2850000858306885,37.400001525878906 C-3.2850000858306885,37.400001525878906 9.045000076293945,-1.1399999856948853 9.045000076293945,-1.1399999856948853 C9.045000076293945,-1.1399999856948853 13.255000114440918,-25.360000610351562 13.255000114440918,-25.360000610351562 C13.255000114440918,-25.360000610351562 1.9550000429153442,-33.119998931884766 1.9550000429153442,-33.119998931884766 C1.9550000429153442,-33.119998931884766 -13.255000114440918,-37.400001525878906 -13.255000114440918,-37.400001525878906z"></path></g><g opacity="1" transform="matrix(1,0,0,1,169.06500244140625,183.16000366210938)"><path fill="rgb(28,118,120)" fill-opacity="1" d=" M100.7249984741211,-2.5799999237060547 C100.7249984741211,-2.5799999237060547 58.334999084472656,69.70999908447266 58.334999084472656,69.70999908447266 C58.334999084472656,69.70999908447266 -0.8149999976158142,48.369998931884766 -0.8149999976158142,48.369998931884766 C-0.8149999976158142,48.369998931884766 -100.7249984741211,6.349999904632568 -100.7249984741211,6.349999904632568 C-100.7249984741211,6.349999904632568 -55.974998474121094,-69.70999908447266 -55.974998474121094,-69.70999908447266 C-55.974998474121094,-69.70999908447266 -15.067999839782715,-58.28300094604492 -15.067999839782715,-58.28300094604492 C-15.067999839782715,-58.28300094604492 41.8650016784668,-42.380001068115234 41.8650016784668,-42.380001068115234 C41.8650016784668,-42.380001068115234 100.7249984741211,-2.5799999237060547 100.7249984741211,-2.5799999237060547z"></path></g></g></g><g transform="matrix(1,-0.0000017601648778509116,0.0000017601648778509116,1,0.7495880126953125,-0.249725341796875)" opacity="1" style="display: block;"><g opacity="1" transform="matrix(1,0,0,1,0,0)"><g opacity="1" transform="matrix(1,0,0,1,163.33999633789062,236.41000366210938)"><path fill="rgb(196,196,196)" fill-opacity="1" d=" M-1.409000039100647,-98.5510025024414 C-1.409000039100647,-98.5510025024414 1.593999981880188,-74.0530014038086 1.593999981880188,-74.0530014038086 C1.593999981880188,-74.0530014038086 9.119999885559082,-49.040000915527344 9.119999885559082,-49.040000915527344 C9.119999885559082,-49.040000915527344 34.88999938964844,-44.02000045776367 34.88999938964844,-44.02000045776367 C34.88999938964844,-44.02000045776367 43.529998779296875,-40.25 43.529998779296875,-40.25 C43.529998779296875,-40.25 58.7400016784668,-38.33000183105469 58.7400016784668,-38.33000183105469 C58.7400016784668,-38.33000183105469 71.66999816894531,-32.869998931884766 71.66999816894531,-32.869998931884766 C71.66999816894531,-32.869998931884766 84.8219985961914,-47.72600173950195 84.8219985961914,-47.72600173950195 C84.8219985961914,-47.72600173950195 92.2490005493164,-43.32500076293945 92.2490005493164,-43.32500076293945 C92.2490005493164,-43.32500076293945 85.71800231933594,-20.368000030517578 85.71800231933594,-20.368000030517578 C85.71800231933594,-20.368000030517578 67.9000015258789,10.109000205993652 67.9000015258789,10.109000205993652 C67.9000015258789,10.109000205993652 35.779998779296875,130.7100067138672 35.779998779296875,130.7100067138672 C35.779998779296875,130.7100067138672 -106.44999694824219,86.39900207519531 -106.44999694824219,86.39900207519531 C-106.44999694824219,86.39900207519531 -79.3499984741211,-16.170000076293945 -79.3499984741211,-16.170000076293945 C-79.3499984741211,-16.170000076293945 -105.86000061035156,-28.209999084472656 -105.86000061035156,-28.209999084472656 C-105.86000061035156,-28.209999084472656 -95,-46.900001525878906 -95,-46.900001525878906 C-95,-46.900001525878906 -73.29000091552734,-38.40999984741211 -73.29000091552734,-38.40999984741211 C-73.29000091552734,-38.40999984741211 -11.1899995803833,-36.47999954223633 -11.1899995803833,-36.47999954223633 C-11.1899995803833,-36.47999954223633 -10.730999946594238,-69.29100036621094 -10.730999946594238,-69.29100036621094 C-10.730999946594238,-69.29100036621094 -11.869000434875488,-98.50399780273438 -11.869000434875488,-98.50399780273438 C-11.869000434875488,-98.50399780273438 -1.409000039100647,-98.5510025024414 -1.409000039100647,-98.5510025024414z"></path></g><g opacity="1" transform="matrix(1,0,0,1,154.9600067138672,277.8699951171875)"><path fill="rgb(143,143,143)" fill-opacity="1" d=" M-70.96900177001953,-57.630001068115234 C-70.96900177001953,-57.630001068115234 -16.39900016784668,-14.810999870300293 -16.39900016784668,-14.810999870300293 C-16.39900016784668,-14.810999870300293 -34.558998107910156,15.84000015258789 -34.558998107910156,15.84000015258789 C-34.558998107910156,15.84000015258789 9.229999542236328,65.76000213623047 9.229999542236328,65.76000213623047 C9.229999542236328,65.76000213623047 54.63999938964844,49.59000015258789 54.63999938964844,49.59000015258789 C54.63999938964844,49.59000015258789 70.97000122070312,-11.480999946594238 70.97000122070312,-11.480999946594238 C70.97000122070312,-11.480999946594238 -43.78900146484375,-65.76000213623047 -43.78900146484375,-65.76000213623047 C-43.78900146484375,-65.76000213623047 -70.96900177001953,-57.630001068115234 -70.96900177001953,-57.630001068115234z"></path></g></g></g><g transform="matrix(1,0.0000018660173282114556,-0.0000018660173282114556,1,0.75,-0.25014495849609375)" opacity="1" style="display: block;"><g opacity="1" transform="matrix(1,0,0,1,118.7750015258789,164.22500610351562)"><path fill="rgb(113,202,204)" fill-opacity="1" d=" M31.905000686645508,-56.01499938964844 C31.905000686645508,-56.01499938964844 -5.684999942779541,-50.775001525878906 -5.684999942779541,-50.775001525878906 C-5.684999942779541,-50.775001525878906 -34.78499984741211,56.01499938964844 -34.78499984741211,56.01499938964844 C-34.78499984741211,56.01499938964844 1.2549999952316284,48.55500030517578 1.2549999952316284,48.55500030517578 C1.2549999952316284,48.55500030517578 33.375,35.70500183105469 33.375,35.70500183105469 C33.375,35.70500183105469 34.78499984741211,-8.164999961853027 34.78499984741211,-8.164999961853027 C34.78499984741211,-8.164999961853027 31.905000686645508,-56.01499938964844 31.905000686645508,-56.01499938964844z"></path></g></g><g transform="matrix(1,-0.000002743314325925894,0.000002743314325925894,1,0.7493896484375,-0.2495269775390625)" opacity="1" style="display: block;"><g opacity="1" transform="matrix(1,0,0,1,0,0)"><g opacity="1" transform="matrix(1,0,0,1,239.36500549316406,114.15499877929688)"><path fill="rgb(223,188,164)" fill-opacity="1" d=" M4.945000171661377,-82.00499725341797 C4.945000171661377,-82.00499725341797 38.39400100708008,-57.494998931884766 38.39400100708008,-57.494998931884766 C38.39400100708008,-57.494998931884766 72.2249984741211,-61.404998779296875 72.2249984741211,-61.404998779296875 C72.2249984741211,-61.404998779296875 30.423999786376953,66.42500305175781 30.423999786376953,66.42500305175781 C30.423999786376953,66.42500305175781 -10.414999961853027,57.48500061035156 -10.414999961853027,57.48500061035156 C-10.414999961853027,57.48500061035156 -32.494998931884766,82.00499725341797 -32.494998931884766,82.00499725341797 C-32.494998931884766,82.00499725341797 -50.066001892089844,51.724998474121094 -50.066001892089844,51.724998474121094 C-50.066001892089844,51.724998474121094 -72.2249984741211,-8.454999923706055 -72.2249984741211,-8.454999923706055 C-72.2249984741211,-8.454999923706055 -64.09600067138672,-7.795000076293945 -64.09600067138672,-7.795000076293945 C-64.09600067138672,-7.795000076293945 -59.525001525878906,-10.225000381469727 -59.525001525878906,-10.225000381469727 C-59.525001525878906,-10.225000381469727 -62.624000549316406,-35.1150016784668 -62.624000549316406,-35.1150016784668 C-62.624000549316406,-35.1150016784668 -39.50600051879883,-42.275001525878906 -39.50600051879883,-42.275001525878906 C-39.50600051879883,-42.275001525878906 -36.18600082397461,-14.734999656677246 -36.18600082397461,-14.734999656677246 C-36.18600082397461,-14.734999656677246 -24.22599983215332,-17.614999771118164 -24.22599983215332,-17.614999771118164 C-24.22599983215332,-17.614999771118164 -33.82600021362305,-78.61499786376953 -33.82600021362305,-78.61499786376953 C-33.82600021362305,-78.61499786376953 4.945000171661377,-82.00499725341797 4.945000171661377,-82.00499725341797z"></path></g><g opacity="1" transform="matrix(1,0,0,1,205.72500610351562,114.15499877929688)"><path fill="rgb(195,151,122)" fill-opacity="1" d=" M38.584999084472656,-82.00499725341797 C38.584999084472656,-82.00499725341797 -0.9150000214576721,46.6349983215332 -0.9150000214576721,46.6349983215332 C-0.9150000214576721,46.6349983215332 22.483999252319336,54.01499938964844 22.483999252319336,54.01499938964844 C22.483999252319336,54.01499938964844 10.895000457763672,66.20500183105469 10.895000457763672,66.20500183105469 C10.895000457763672,66.20500183105469 1.1449999809265137,82.00499725341797 1.1449999809265137,82.00499725341797 C1.1449999809265137,82.00499725341797 -3.575000047683716,64.875 -3.575000047683716,64.875 C-3.575000047683716,64.875 -11.925999641418457,52.314998626708984 -11.925999641418457,52.314998626708984 C-11.925999641418457,52.314998626708984 -38.584999084472656,-8.454999923706055 -38.584999084472656,-8.454999923706055 C-38.584999084472656,-8.454999923706055 -25.885000228881836,-10.154999732971191 -25.885000228881836,-10.154999732971191 C-25.885000228881836,-10.154999732971191 -11.335000038146973,-11.484999656677246 -11.335000038146973,-11.484999656677246 C-11.335000038146973,-11.484999656677246 -4.244999885559082,-12.734999656677246 -4.244999885559082,-12.734999656677246 C-4.244999885559082,-12.734999656677246 10.154000282287598,-15.545000076293945 10.154000282287598,-15.545000076293945 C10.154000282287598,-15.545000076293945 2.1050000190734863,-78.98500061035156 2.1050000190734863,-78.98500061035156 C2.1050000190734863,-78.98500061035156 38.584999084472656,-82.00499725341797 38.584999084472656,-82.00499725341797z"></path></g><g opacity="1" transform="matrix(1,0,0,1,188.63499450683594,89.08000183105469)"><path fill="rgb(138,102,81)" fill-opacity="1" d=" M5.465000152587891,5.690000057220459 C5.465000152587891,5.690000057220459 4.275000095367432,-5.690000057220459 4.275000095367432,-5.690000057220459 C4.275000095367432,-5.690000057220459 -5.465000152587891,-4.71999979019165 -5.465000152587891,-4.71999979019165 C-5.465000152587891,-4.71999979019165 5.465000152587891,5.690000057220459 5.465000152587891,5.690000057220459z"></path></g><g opacity="1" transform="matrix(1,0,0,1,190.66000366210938,107.4000015258789)"><path fill="rgb(138,102,81)" fill-opacity="1" d=" M-10.819999694824219,-3.4700000286102295 C-10.819999694824219,-3.4700000286102295 10.819999694824219,-5.980000019073486 10.819999694824219,-5.980000019073486 C10.819999694824219,-5.980000019073486 -9.560999870300293,5.980000019073486 -9.560999870300293,5.980000019073486 C-9.560999870300293,5.980000019073486 -10.819999694824219,-3.4700000286102295 -10.819999694824219,-3.4700000286102295z"></path></g><g opacity="1" transform="matrix(1,0,0,1,258.7099914550781,119.39399719238281)"><path fill="rgb(138,102,81)" fill-opacity="1" d=" M6.5,0.11500000208616257 C6.5,0.11500000208616257 -2.140000104904175,3.9549999237060547 -2.140000104904175,3.9549999237060547 C-2.140000104904175,3.9549999237060547 -6.5,-3.9549999237060547 -6.5,-3.9549999237060547 C-6.5,-3.9549999237060547 6.5,0.11500000208616257 6.5,0.11500000208616257z"></path></g><g opacity="1" transform="matrix(1,0,0,1,254.05999755859375,97.05500030517578)"><path fill="rgb(195,151,122)" fill-opacity="1" d=" M-9.3100004196167,-18.315000534057617 C-9.3100004196167,-18.315000534057617 -0.2199999988079071,-10.994999885559082 -0.2199999988079071,-10.994999885559082 C-0.2199999988079071,-10.994999885559082 -1.850000023841858,18.385000228881836 -1.850000023841858,18.385000228881836 C-1.850000023841858,18.385000228881836 7.510000228881836,-2.2850000858306885 7.510000228881836,-2.2850000858306885 C7.510000228881836,-2.2850000858306885 9.3100004196167,-18.385000228881836 9.3100004196167,-18.385000228881836 C9.3100004196167,-18.385000228881836 -9.3100004196167,-18.315000534057617 -9.3100004196167,-18.315000534057617z"></path></g><g opacity="1" transform="matrix(1,0,0,1,280.0350036621094,95.58000183105469)"><path fill="rgb(195,151,122)" fill-opacity="1" d=" M-3.5950000286102295,-12.630000114440918 C-3.5950000286102295,-12.630000114440918 -12.425000190734863,-0.8100000023841858 -12.425000190734863,-0.8100000023841858 C-12.425000190734863,-0.8100000023841858 -11.355999946594238,12.630000114440918 -11.355999946594238,12.630000114440918 C-11.355999946594238,12.630000114440918 2.6040000915527344,-3.4700000286102295 2.6040000915527344,-3.4700000286102295 C2.6040000915527344,-3.4700000286102295 12.425000190734863,-4.650000095367432 12.425000190734863,-4.650000095367432 C12.425000190734863,-4.650000095367432 -3.5950000286102295,-12.630000114440918 -3.5950000286102295,-12.630000114440918z"></path></g><g opacity="1" transform="matrix(1,0,0,1,211.0050048828125,178.3249969482422)"><path fill="rgb(138,102,81)" fill-opacity="1" d=" M-6.795000076293945,-17.834999084472656 C-6.795000076293945,-17.834999084472656 -17.204999923706055,-11.854999542236328 -17.204999923706055,-11.854999542236328 C-17.204999923706055,-11.854999542236328 -13.145000457763672,2.8450000286102295 -13.145000457763672,2.8450000286102295 C-13.145000457763672,2.8450000286102295 -4.135000228881836,17.834999084472656 -4.135000228881836,17.834999084472656 C-4.135000228881836,17.834999084472656 7.315000057220459,5.275000095367432 7.315000057220459,5.275000095367432 C7.315000057220459,5.275000095367432 17.204999923706055,-10.154999732971191 17.204999923706055,-10.154999732971191 C17.204999923706055,-10.154999732971191 -6.795000076293945,-17.834999084472656 -6.795000076293945,-17.834999084472656z"></path></g><g opacity="1" transform="matrix(1,0,0,1,285.3349914550781,84.43000030517578)"><path fill="rgb(70,70,70)" fill-opacity="1" d=" M-7.425000190734863,-6.5 C-7.425000190734863,-6.5 8.895000457763672,0.8899999856948853 8.895000457763672,0.8899999856948853 C8.895000457763672,0.8899999856948853 7.125,6.5 7.125,6.5 C7.125,6.5 -8.895000457763672,-1.4800000190734863 -8.895000457763672,-1.4800000190734863 C-8.895000457763672,-1.4800000190734863 -7.425000190734863,-6.5 -7.425000190734863,-6.5z"></path></g><g opacity="1" transform="matrix(1,0,0,1,254.8350067138672,75.86000061035156)"><path fill="rgb(70,70,70)" fill-opacity="1" d=" M10.085000038146973,-2.2100000381469727 C10.085000038146973,-2.2100000381469727 -9.265000343322754,-2.880000114440918 -9.265000343322754,-2.880000114440918 C-9.265000343322754,-2.880000114440918 -10.085000038146973,2.880000114440918 -10.085000038146973,2.880000114440918 C-10.085000038146973,2.880000114440918 8.53499984741211,2.809999942779541 8.53499984741211,2.809999942779541 C8.53499984741211,2.809999942779541 10.085000038146973,-2.2100000381469727 10.085000038146973,-2.2100000381469727z"></path></g><g opacity="1" transform="matrix(1,0,0,1,0,0)"><g opacity="1" transform="matrix(1,0,0,1,251.2550048828125,132.4340057373047)"><path fill="rgb(195,151,122)" fill-opacity="1" d=" M-26.145000457763672,-11.595000267028809 C-26.145000457763672,-11.595000267028809 26.145000457763672,4.875 26.145000457763672,4.875 C26.145000457763672,4.875 -0.8849999904632568,11.595000267028809 -0.8849999904632568,11.595000267028809 C-0.8849999904632568,11.595000267028809 -26.145000457763672,-11.595000267028809 -26.145000457763672,-11.595000267028809z"></path></g><g opacity="1" transform="matrix(1,0,0,1,251.77499389648438,134.8300018310547)"><path fill="rgb(255,255,255)" fill-opacity="1" d=" M-14.104999542236328,-6.610000133514404 C-14.104999542236328,-6.610000133514404 14.104999542236328,2.180000066757202 14.104999542236328,2.180000066757202 C14.104999542236328,2.180000066757202 -0.9649999737739563,6.610000133514404 -0.9649999737739563,6.610000133514404 C-0.9649999737739563,6.610000133514404 -14.104999542236328,-6.610000133514404 -14.104999542236328,-6.610000133514404z"></path></g></g><g opacity="1" transform="matrix(1,0,0,1,250.03500366210938,34.400001525878906)"><path fill="rgb(70,70,70)" fill-opacity="1" d=" M15.175000190734863,-26.030000686645508 C15.175000190734863,-26.030000686645508 -27.434999465942383,-21.899999618530273 -27.434999465942383,-21.899999618530273 C-27.434999465942383,-21.899999618530273 -17.614999771118164,-7.420000076293945 -17.614999771118164,-7.420000076293945 C-17.614999771118164,-7.420000076293945 -5.724999904632568,-2.25 -5.724999904632568,-2.25 C-5.724999904632568,-2.25 27.434999465942383,26.030000686645508 27.434999465942383,26.030000686645508 C27.434999465942383,26.030000686645508 24.9950008392334,0.6299999952316284 24.9950008392334,0.6299999952316284 C24.9950008392334,0.6299999952316284 15.175000190734863,-26.030000686645508 15.175000190734863,-26.030000686645508z"></path></g><g opacity="1" transform="matrix(1,0,0,1,215.9550018310547,24.8700008392334)"><path fill="rgb(110,112,115)" fill-opacity="1" d=" M6.644999980926514,-12.369999885559082 C6.644999980926514,-12.369999885559082 -28.354999542236328,-7.940000057220459 -28.354999542236328,-7.940000057220459 C-28.354999542236328,-7.940000057220459 -16.02400016784668,6.829999923706055 -16.02400016784668,6.829999923706055 C-16.02400016784668,6.829999923706055 -6.053999900817871,12.369999885559082 -6.053999900817871,12.369999885559082 C-6.053999900817871,12.369999885559082 28.354999542236328,7.28000020980835 28.354999542236328,7.28000020980835 C28.354999542236328,7.28000020980835 6.644999980926514,-12.369999885559082 6.644999980926514,-12.369999885559082z"></path></g><g opacity="1" transform="matrix(1,0,0,1,197.16000366210938,59.17499923706055)"><path fill="rgb(70,70,70)" fill-opacity="1" d=" M-9.5600004196167,-42.244998931884766 C-9.5600004196167,-42.244998931884766 -20.420000076293945,19.864999771118164 -20.420000076293945,19.864999771118164 C-20.420000076293945,19.864999771118164 1.2899999618530273,16.834999084472656 1.2899999618530273,16.834999084472656 C1.2899999618530273,16.834999084472656 4.320000171661377,42.244998931884766 4.320000171661377,42.244998931884766 C4.320000171661377,42.244998931884766 20.420000076293945,40.32500076293945 20.420000076293945,40.32500076293945 C20.420000076293945,40.32500076293945 12.739999771118164,-21.934999465942383 12.739999771118164,-21.934999465942383 C12.739999771118164,-21.934999465942383 -9.5600004196167,-42.244998931884766 -9.5600004196167,-42.244998931884766z"></path></g><g opacity="1" transform="matrix(1,0,0,1,288.3999938964844,34.400001525878906)"><path fill="rgb(143,143,143)" fill-opacity="1" d=" M-10.930000305175781,26.030000686645508 C-10.930000305175781,26.030000686645508 -23.190000534057617,-26.030000686645508 -23.190000534057617,-26.030000686645508 C-23.190000534057617,-26.030000686645508 23.190000534057617,18.350000381469727 23.190000534057617,18.350000381469727 C23.190000534057617,18.350000381469727 -10.930000305175781,26.030000686645508 -10.930000305175781,26.030000686645508z"></path></g></g><g opacity="1" transform="matrix(1,0,0,1,264.32501220703125,99.08999633789062)"><path fill="rgb(232,201,182)" fill-opacity="1" d=" M-0.9549999833106995,-20.420000076293945 C-0.9549999833106995,-20.420000076293945 12.114999771118164,-16.139999389648438 12.114999771118164,-16.139999389648438 C12.114999771118164,-16.139999389648438 0.8849999904632568,20.420000076293945 0.8849999904632568,20.420000076293945 C0.8849999904632568,20.420000076293945 -12.114999771118164,16.350000381469727 -12.114999771118164,16.350000381469727 C-12.114999771118164,16.350000381469727 -0.9549999833106995,-20.420000076293945 -0.9549999833106995,-20.420000076293945z"></path></g><g opacity="1" transform="matrix(1,0,0,1,0,0)"><g opacity="1" transform="matrix(1,0,0,1,0,0)"><g opacity="1" transform="matrix(1,0,0,1,187.0050048828125,150.92999267578125)"><path fill="rgb(80,169,170)" fill-opacity="1" d=" M-19.864999771118164,-45.22999954223633 C-19.864999771118164,-45.22999954223633 -18.53499984741211,6.159999847412109 -18.53499984741211,6.159999847412109 C-18.53499984741211,6.159999847412109 -14.545000076293945,36.439998626708984 -14.545000076293945,36.439998626708984 C-14.545000076293945,36.439998626708984 19.864999771118164,45.22999954223633 19.864999771118164,45.22999954223633 C19.864999771118164,45.22999954223633 6.795000076293945,15.539999961853027 6.795000076293945,15.539999961853027 C6.795000076293945,15.539999961853027 -19.864999771118164,-45.22999954223633 -19.864999771118164,-45.22999954223633z"></path></g><g opacity="1" transform="matrix(1,0,0,1,229.875,185.85499572753906)"><path fill="rgb(113,202,204)" fill-opacity="1" d=" M-1.6649999618530273,-17.684999465942383 C-1.6649999618530273,-17.684999465942383 -23.0049991607666,10.305000305175781 -23.0049991607666,10.305000305175781 C-23.0049991607666,10.305000305175781 -8.085000038146973,14.21500015258789 -8.085000038146973,14.21500015258789 C-8.085000038146973,14.21500015258789 5.135000228881836,17.684999465942383 5.135000228881836,17.684999465942383 C5.135000228881836,17.684999465942383 15.625,4.614999771118164 15.625,4.614999771118164 C15.625,4.614999771118164 23.0049991607666,-10.295000076293945 23.0049991607666,-10.295000076293945 C23.0049991607666,-10.295000076293945 -1.6649999618530273,-17.684999465942383 -1.6649999618530273,-17.684999465942383z"></path></g><g opacity="1" transform="matrix(1,0,0,1,161.57000732421875,152.81500244140625)"><path fill="rgb(221,221,220)" fill-opacity="1" d=" M-9.420000076293945,47.1150016784668 C-9.420000076293945,47.1150016784668 10.890000343322754,34.55500030517578 10.890000343322754,34.55500030517578 C10.890000343322754,34.55500030517578 5.570000171661377,-47.1150016784668 5.570000171661377,-47.1150016784668 C5.570000171661377,-47.1150016784668 -10.890000343322754,-44.60499954223633 -10.890000343322754,-44.60499954223633 C-10.890000343322754,-44.60499954223633 -9.420000076293945,47.1150016784668 -9.420000076293945,47.1150016784668z"></path></g><g opacity="1" transform="matrix(1,0,0,1,252.39999389648438,197.63999938964844)"><path fill="rgb(221,221,220)" fill-opacity="1" d=" M-17.389999389648438,5.900000095367432 C-17.389999389648438,5.900000095367432 -5.499000072479248,22.079999923706055 -5.499000072479248,22.079999923706055 C-5.499000072479248,22.079999923706055 17.389999389648438,-17.059999465942383 17.389999389648438,-17.059999465942383 C17.389999389648438,-17.059999465942383 0.47999998927116394,-22.079999923706055 0.47999998927116394,-22.079999923706055 C0.47999998927116394,-22.079999923706055 -17.389999389648438,5.900000095367432 -17.389999389648438,5.900000095367432z"></path></g></g></g></g><g transform="matrix(1,-0.0000017601648778509116,0.0000017601648778509116,1,0.7495880126953125,-0.249725341796875)" opacity="1" style="display: block;"><g opacity="1" transform="matrix(1,0,0,1,0,0)"><g opacity="1" transform="matrix(1,0,0,1,0,0)"><g opacity="1" transform="matrix(1,0,0,1,343.1449890136719,146.0850067138672)"><path fill="rgb(48,143,166)" fill-opacity="1" d=" M47.19499969482422,-9.524999618530273 C47.19499969482422,-9.524999618530273 -47.19499969482422,-9.524999618530273 -47.19499969482422,-9.524999618530273 C-47.19499969482422,-9.524999618530273 -47.19499969482422,7.304999828338623 -47.19499969482422,7.304999828338623 C-47.19499969482422,7.304999828338623 15.954999923706055,9.524999618530273 15.954999923706055,9.524999618530273 C15.954999923706055,9.524999618530273 47.19499969482422,7.304999828338623 47.19499969482422,7.304999828338623 C47.19499969482422,7.304999828338623 47.19499969482422,-9.524999618530273 47.19499969482422,-9.524999618530273z"></path></g><g opacity="1" transform="matrix(1,0,0,1,343.1449890136719,160.9949951171875)"><path fill="rgb(94,192,217)" fill-opacity="1" d=" M47.19499969482422,5.724999904632568 C47.19499969482422,5.724999904632568 5.724999904632568,7.605000019073486 5.724999904632568,7.605000019073486 C5.724999904632568,7.605000019073486 -47.19499969482422,5.724999904632568 -47.19499969482422,5.724999904632568 C-47.19499969482422,5.724999904632568 -47.19499969482422,-7.605000019073486 -47.19499969482422,-7.605000019073486 C-47.19499969482422,-7.605000019073486 47.19499969482422,-7.605000019073486 47.19499969482422,-7.605000019073486 C47.19499969482422,-7.605000019073486 47.19499969482422,5.724999904632568 47.19499969482422,5.724999904632568z"></path></g><g opacity="1" transform="matrix(1,0,0,1,343.1449890136719,173.99000549316406)"><path fill="rgb(57,159,185)" fill-opacity="1" d=" M47.19499969482422,-7.269999980926514 C47.19499969482422,-7.269999980926514 -47.19499969482422,-7.269999980926514 -47.19499969482422,-7.269999980926514 C-47.19499969482422,-7.269999980926514 -47.19499969482422,6.059999942779541 -47.19499969482422,6.059999942779541 C-47.19499969482422,6.059999942779541 1.684999942779541,7.269999980926514 1.684999942779541,7.269999980926514 C1.684999942779541,7.269999980926514 47.19499969482422,6.059999942779541 47.19499969482422,6.059999942779541 C47.19499969482422,6.059999942779541 47.19499969482422,-7.269999980926514 47.19499969482422,-7.269999980926514z"></path></g><g opacity="1" transform="matrix(1,0,0,1,343.1449890136719,183.64999389648438)"><path fill="rgb(94,192,217)" fill-opacity="1" d=" M47.19499969482422,3.059999942779541 C47.19499969482422,3.059999942779541 0.4749999940395355,3.5999999046325684 0.4749999940395355,3.5999999046325684 C0.4749999940395355,3.5999999046325684 -47.19499969482422,3.059999942779541 -47.19499969482422,3.059999942779541 C-47.19499969482422,3.059999942779541 -47.19499969482422,-3.5999999046325684 -47.19499969482422,-3.5999999046325684 C-47.19499969482422,-3.5999999046325684 47.19499969482422,-3.5999999046325684 47.19499969482422,-3.5999999046325684 C47.19499969482422,-3.5999999046325684 47.19499969482422,3.059999942779541 47.19499969482422,3.059999942779541z"></path></g><g opacity="1" transform="matrix(1,0,0,1,343.1449890136719,190.47999572753906)"><path fill="rgb(48,143,166)" fill-opacity="1" d=" M47.19499969482422,-3.7699999809265137 C47.19499969482422,-3.7699999809265137 -47.19499969482422,-3.7699999809265137 -47.19499969482422,-3.7699999809265137 C-47.19499969482422,-3.7699999809265137 -47.19499969482422,2.759999990463257 -47.19499969482422,2.759999990463257 C-47.19499969482422,2.759999990463257 4.514999866485596,3.7699999809265137 4.514999866485596,3.7699999809265137 C4.514999866485596,3.7699999809265137 47.19499969482422,2.759999990463257 47.19499969482422,2.759999990463257 C47.19499969482422,2.759999990463257 47.19499969482422,-3.7699999809265137 47.19499969482422,-3.7699999809265137z"></path></g><g opacity="1" transform="matrix(1,0,0,1,343.1449890136719,197.25)"><path fill="rgb(94,192,217)" fill-opacity="1" d=" M47.19499969482422,2.6600000858306885 C47.19499969482422,2.6600000858306885 2.2850000858306885,4.010000228881836 2.2850000858306885,4.010000228881836 C2.2850000858306885,4.010000228881836 -47.19499969482422,2.6600000858306885 -47.19499969482422,2.6600000858306885 C-47.19499969482422,2.6600000858306885 -47.19499969482422,-4.010000228881836 -47.19499969482422,-4.010000228881836 C-47.19499969482422,-4.010000228881836 47.19499969482422,-4.010000228881836 47.19499969482422,-4.010000228881836 C47.19499969482422,-4.010000228881836 47.19499969482422,2.6600000858306885 47.19499969482422,2.6600000858306885z"></path></g><g opacity="1" transform="matrix(1,0,0,1,343.1449890136719,203.24000549316406)"><path fill="rgb(39,120,139)" fill-opacity="1" d=" M54.19499969482422,-3.3299999237060547 C54.19499969482422,-3.3299999237060547 -54.19499969482422,-3.3299999237060547 -54.19499969482422,-3.3299999237060547 C-54.19499969482422,-3.3299999237060547 -54.19499969482422,3.3299999237060547 -54.19499969482422,3.3299999237060547 C-54.19499969482422,3.3299999237060547 54.19499969482422,3.3299999237060547 54.19499969482422,3.3299999237060547 C54.19499969482422,3.3299999237060547 54.19499969482422,-3.3299999237060547 54.19499969482422,-3.3299999237060547z"></path></g><g opacity="1" transform="matrix(1,0,0,1,343.114990234375,141.24000549316406)"><path fill="rgb(94,192,217)" fill-opacity="1" d=" M-28.315000534057617,-4.679999828338623 C-28.315000534057617,-4.679999828338623 -47.224998474121094,-4.679999828338623 -47.224998474121094,-4.679999828338623 C-47.224998474121094,-4.679999828338623 -37.73500061035156,4.679999828338623 -37.73500061035156,4.679999828338623 C-37.73500061035156,4.679999828338623 -28.315000534057617,-4.679999828338623 -28.315000534057617,-4.679999828338623 C-28.315000534057617,-4.679999828338623 -9.46399974822998,-4.679999828338623 -9.46399974822998,-4.679999828338623 C-9.46399974822998,-4.679999828338623 -0.03500000014901161,4.679999828338623 -0.03500000014901161,4.679999828338623 C-0.03500000014901161,4.679999828338623 9.456000328063965,-4.679999828338623 9.456000328063965,-4.679999828338623 C9.456000328063965,-4.679999828338623 28.30500030517578,-4.679999828338623 28.30500030517578,-4.679999828338623 C28.30500030517578,-4.679999828338623 37.79499816894531,4.679999828338623 37.79499816894531,4.679999828338623 C37.79499816894531,4.679999828338623 47.224998474121094,-4.679999828338623 47.224998474121094,-4.679999828338623 C47.224998474121094,-4.679999828338623 28.30500030517578,-4.679999828338623 28.30500030517578,-4.679999828338623 C28.30500030517578,-4.679999828338623 18.885000228881836,4.679999828338623 18.885000228881836,4.679999828338623 C18.885000228881836,4.679999828338623 9.456000328063965,-4.679999828338623 9.456000328063965,-4.679999828338623 C9.456000328063965,-4.679999828338623 -9.46399974822998,-4.679999828338623 -9.46399974822998,-4.679999828338623 C-9.46399974822998,-4.679999828338623 -18.954999923706055,4.679999828338623 -18.954999923706055,4.679999828338623 C-18.954999923706055,4.679999828338623 -28.315000534057617,-4.679999828338623 -28.315000534057617,-4.679999828338623z"></path></g></g><g opacity="1" transform="matrix(1,0,0,1,0,0)"><g opacity="1" transform="matrix(1,0,0,1,0,0)"><g opacity="1" transform="matrix(1,0,0,1,0,0)"><g opacity="1" transform="matrix(1,0,0,1,380.8800048828125,104.34500122070312)"><path fill="rgb(228,199,40)" fill-opacity="1" d=" M4.741000175476074,-0.03500000014901161 C4.741000175476074,-0.03500000014901161 -0.029999999329447746,-5.870999813079834 -0.029999999329447746,-5.870999813079834 C-0.029999999329447746,-5.870999813079834 -4.835000038146973,-0.03500000014901161 -4.835000038146973,-0.03500000014901161 C-4.835000038146973,-0.03500000014901161 -0.029999999329447746,6.965000152587891 -0.029999999329447746,6.965000152587891 C-0.029999999329447746,6.965000152587891 4.741000175476074,-0.03500000014901161 4.741000175476074,-0.03500000014901161z"></path></g><g opacity="1" transform="matrix(1,0,0,1,361.7950134277344,104.34500122070312)"><path fill="rgb(228,199,40)" fill-opacity="1" d=" M4.706500053405762,-0.03500000014901161 C4.706500053405762,-0.03500000014901161 0.06599999964237213,-5.870999813079834 0.06599999964237213,-5.870999813079834 C0.06599999964237213,-5.870999813079834 -4.800000190734863,-0.03500000014901161 -4.800000190734863,-0.03500000014901161 C-4.800000190734863,-0.03500000014901161 0.06599999964237213,6.965000152587891 0.06599999964237213,6.965000152587891 C0.06599999964237213,6.965000152587891 4.706500053405762,-0.03500000014901161 4.706500053405762,-0.03500000014901161z"></path></g><g opacity="1" transform="matrix(1,0,0,1,324.05999755859375,104.34500122070312)"><path fill="rgb(228,199,40)" fill-opacity="1" d=" M4.741000175476074,-0.03500000014901161 C4.741000175476074,-0.03500000014901161 -0.028999999165534973,-5.870999813079834 -0.028999999165534973,-5.870999813079834 C-0.028999999165534973,-5.870999813079834 -4.835000038146973,-0.03500000014901161 -4.835000038146973,-0.03500000014901161 C-4.835000038146973,-0.03500000014901161 -0.028999999165534973,6.965000152587891 -0.028999999165534973,6.965000152587891 C-0.028999999165534973,6.965000152587891 4.741000175476074,-0.03500000014901161 4.741000175476074,-0.03500000014901161z"></path></g><g opacity="1" transform="matrix(1,0,0,1,304.9750061035156,104.34500122070312)"><path fill="rgb(228,199,40)" fill-opacity="1" d=" M4.706999778747559,-0.03500000014901161 C4.706999778747559,-0.03500000014901161 0.06499999761581421,-5.870999813079834 0.06499999761581421,-5.870999813079834 C0.06499999761581421,-5.870999813079834 -4.801000118255615,-0.03500000014901161 -4.801000118255615,-0.03500000014901161 C-4.801000118255615,-0.03500000014901161 0.06499999761581421,6.965000152587891 0.06499999761581421,6.965000152587891 C0.06499999761581421,6.965000152587891 4.706999778747559,-0.03500000014901161 4.706999778747559,-0.03500000014901161z"></path></g></g><g opacity="1" transform="matrix(1,0,0,1,380.8800048828125,122.98999786376953)"><path fill="rgb(48,143,166)" fill-opacity="1" d=" M2.6600000858306885,-14.170000076293945 C2.6600000858306885,-14.170000076293945 -2.6600000858306885,-14.170000076293945 -2.6600000858306885,-14.170000076293945 C-2.6600000858306885,-14.170000076293945 -2.6600000858306885,14.170000076293945 -2.6600000858306885,14.170000076293945 C-2.6600000858306885,14.170000076293945 2.6600000858306885,14.170000076293945 2.6600000858306885,14.170000076293945 C2.6600000858306885,14.170000076293945 2.6600000858306885,-14.170000076293945 2.6600000858306885,-14.170000076293945z"></path></g><g opacity="1" transform="matrix(1,0,0,1,324.05999755859375,122.98999786376953)"><path fill="rgb(48,143,166)" fill-opacity="1" d=" M2.6600000858306885,-14.170000076293945 C2.6600000858306885,-14.170000076293945 -2.6589999198913574,-14.170000076293945 -2.6589999198913574,-14.170000076293945 C-2.6589999198913574,-14.170000076293945 -2.6589999198913574,14.170000076293945 -2.6589999198913574,14.170000076293945 C-2.6589999198913574,14.170000076293945 2.6600000858306885,14.170000076293945 2.6600000858306885,14.170000076293945 C2.6600000858306885,14.170000076293945 2.6600000858306885,-14.170000076293945 2.6600000858306885,-14.170000076293945z"></path></g><g opacity="1" transform="matrix(1,0,0,1,361.7950134277344,122.98999786376953)"><path fill="rgb(48,143,166)" fill-opacity="1" d=" M2.625,-14.170000076293945 C2.625,-14.170000076293945 -2.625,-14.170000076293945 -2.625,-14.170000076293945 C-2.625,-14.170000076293945 -2.625,14.170000076293945 -2.625,14.170000076293945 C-2.625,14.170000076293945 2.625,14.170000076293945 2.625,14.170000076293945 C2.625,14.170000076293945 2.625,-14.170000076293945 2.625,-14.170000076293945z"></path></g><g opacity="1" transform="matrix(1,0,0,1,304.9750061035156,122.98999786376953)"><path fill="rgb(48,143,166)" fill-opacity="1" d=" M2.625,-14.170000076293945 C2.625,-14.170000076293945 -2.625,-14.170000076293945 -2.625,-14.170000076293945 C-2.625,-14.170000076293945 -2.625,14.170000076293945 -2.625,14.170000076293945 C-2.625,14.170000076293945 2.625,14.170000076293945 2.625,14.170000076293945 C2.625,14.170000076293945 2.625,-14.170000076293945 2.625,-14.170000076293945z"></path></g><g opacity="1" transform="matrix(1,0,0,1,0,0)"><path fill="rgb(48,143,166)" fill-opacity="1" d="M0 0"></path></g></g><g opacity="1" transform="matrix(1,0,0,1,0,0)"><g opacity="1" transform="matrix(1,0,0,1,343.1449890136719,131.24000549316406)"><path fill="rgb(39,120,139)" fill-opacity="1" d=" M10.975000381469727,-5.519999980926514 C10.975000381469727,-5.519999980926514 -10.975000381469727,-5.519999980926514 -10.975000381469727,-5.519999980926514 C-10.975000381469727,-5.519999980926514 -0.06499999761581421,5.519999980926514 -0.06499999761581421,5.519999980926514 C-0.06499999761581421,5.519999980926514 10.975000381469727,-5.519999980926514 10.975000381469727,-5.519999980926514z"></path></g><g opacity="1" transform="matrix(1,0,0,1,343.1449890136719,120.23500061035156)"><path fill="rgb(94,192,217)" fill-opacity="1" d=" M10.975000381469727,5.485000133514404 C10.975000381469727,5.485000133514404 -0.06499999761581421,-5.485000133514404 -0.06499999761581421,-5.485000133514404 C-0.06499999761581421,-5.485000133514404 -10.975000381469727,5.485000133514404 -10.975000381469727,5.485000133514404 C-10.975000381469727,5.485000133514404 10.975000381469727,5.485000133514404 10.975000381469727,5.485000133514404z"></path></g></g></g></g><g opacity="1" transform="matrix(1,0,0,1,0,0)"><path fill="rgb(139,102,81)" fill-opacity="1" d="M0 0"></path></g></g><g transform="matrix(1,0.0000018660173282114556,-0.0000018660173282114556,1,0.75,-0.25014495849609375)" opacity="1" style="display: block;"><g opacity="1" transform="matrix(1,0,0,1,0,0)"><g opacity="1" transform="matrix(1,0,0,1,177.58999633789062,234.3350067138672)"><path fill="rgb(195,151,122)" fill-opacity="1" d=" M-8.75,-5.835000038146973 C-8.75,-5.835000038146973 8.75,0.5950000286102295 8.75,0.5950000286102295 C8.75,0.5950000286102295 -0.10999999940395355,5.835000038146973 -0.10999999940395355,5.835000038146973 C-0.10999999940395355,5.835000038146973 -8.75,-5.835000038146973 -8.75,-5.835000038146973z"></path></g><g opacity="1" transform="matrix(1,0,0,1,0,0)"><g opacity="1" transform="matrix(1,0,0,1,207.24000549316406,277.0589904785156)"><path fill="rgb(39,120,139)" fill-opacity="1" d=" M-3.180000066757202,-52.540000915527344 C-3.180000066757202,-52.540000915527344 15.439000129699707,-44.720001220703125 15.439000129699707,-44.720001220703125 C15.439000129699707,-44.720001220703125 45.27000045776367,5.13100004196167 45.27000045776367,5.13100004196167 C45.27000045776367,5.13100004196167 -38.77000045776367,52.540000915527344 -38.77000045776367,52.540000915527344 C-38.77000045776367,52.540000915527344 -45.27000045776367,40.95000076293945 -45.27000045776367,40.95000076293945 C-45.27000045776367,40.95000076293945 27.770000457763672,-0.4790000021457672 27.770000457763672,-0.4790000021457672 C27.770000457763672,-0.4790000021457672 -3.180000066757202,-52.540000915527344 -3.180000066757202,-52.540000915527344z"></path></g><g opacity="1" transform="matrix(1,0,0,1,213.36900329589844,230.0189971923828)"><path fill="rgb(39,120,139)" fill-opacity="1" d=" M3.9110000133514404,5.5 C3.9110000133514404,5.5 9.3100004196167,2.319999933242798 9.3100004196167,2.319999933242798 C9.3100004196167,2.319999933242798 -9.3100004196167,-5.5 -9.3100004196167,-5.5 C-9.3100004196167,-5.5 -4.86899995803833,1.88100004196167 -4.86899995803833,1.88100004196167 C-4.86899995803833,1.88100004196167 -0.7390000224113464,4.980000019073486 -0.7390000224113464,4.980000019073486 C-0.7390000224113464,4.980000019073486 3.9110000133514404,5.5 3.9110000133514404,5.5z"></path></g><g opacity="1" transform="matrix(1,0,0,1,225.9250030517578,255.97500610351562)"><path fill="rgb(221,221,220)" fill-opacity="1" d=" M-17.424999237060547,-24.075000762939453 C-17.424999237060547,-24.075000762939453 -8.645000457763672,-20.45599937438965 -8.645000457763672,-20.45599937438965 C-8.645000457763672,-20.45599937438965 17.424999237060547,24.073999404907227 17.424999237060547,24.073999404907227 C17.424999237060547,24.073999404907227 10.854999542236328,23.405000686645508 10.854999542236328,23.405000686645508 C10.854999542236328,23.405000686645508 9.085000038146973,20.604999542236328 9.085000038146973,20.604999542236328 C9.085000038146973,20.604999542236328 -6.425000190734863,-0.8140000104904175 -6.425000190734863,-0.8140000104904175 C-6.425000190734863,-0.8140000104904175 -17.424999237060547,-24.075000762939453 -17.424999237060547,-24.075000762939453z"></path></g><g opacity="1" transform="matrix(1,0,0,1,202.66000366210938,299.0299987792969)"><path fill="rgb(196,196,196)" fill-opacity="1" d=" M32.349998474121094,-22.450000762939453 C32.349998474121094,-22.450000762939453 40.689998626708984,-18.979999542236328 40.689998626708984,-18.979999542236328 C40.689998626708984,-18.979999542236328 -33.08000183105469,22.450000762939453 -33.08000183105469,22.450000762939453 C-33.08000183105469,22.450000762939453 -40.689998626708984,18.979999542236328 -40.689998626708984,18.979999542236328 C-40.689998626708984,18.979999542236328 -0.07000000029802322,-7.309999942779541 -0.07000000029802322,-7.309999942779541 C-0.07000000029802322,-7.309999942779541 32.349998474121094,-22.450000762939453 32.349998474121094,-22.450000762939453z"></path></g><g opacity="1" transform="matrix(1,0,0,1,179.73500061035156,274.2550048828125)"><path fill="rgb(57,159,185)" fill-opacity="1" d=" M24.325000762939453,-49.736000061035156 C24.325000762939453,-49.736000061035156 -55.275001525878906,-2.9149999618530273 -55.275001525878906,-2.9149999618530273 C-55.275001525878906,-2.9149999618530273 -28.243999481201172,49.736000061035156 -28.243999481201172,49.736000061035156 C-28.243999481201172,49.736000061035156 55.275001525878906,2.3259999752044678 55.275001525878906,2.3259999752044678 C55.275001525878906,2.3259999752044678 24.325000762939453,-49.736000061035156 24.325000762939453,-49.736000061035156z"></path></g><g opacity="1" transform="matrix(1,0,0,1,159.05499267578125,267.1990051269531)"><path fill="rgb(39,120,139)" fill-opacity="1" d=" M20.4950008392334,5.099999904632568 C20.4950008392334,5.099999904632568 -5.864999771118164,10.5600004196167 -5.864999771118164,10.5600004196167 C-5.864999771118164,10.5600004196167 -20.4950008392334,-4.139999866485596 -20.4950008392334,-4.139999866485596 C-20.4950008392334,-4.139999866485596 -10.074999809265137,-10.5600004196167 -10.074999809265137,-10.5600004196167 C-10.074999809265137,-10.5600004196167 20.4950008392334,5.099999904632568 20.4950008392334,5.099999904632568z"></path></g></g><g opacity="1" transform="matrix(1,0,0,1,164.52499389648438,249.2550048828125)"><path fill="rgb(223,188,164)" fill-opacity="1" d=" M4.315000057220459,-20.7549991607666 C4.315000057220459,-20.7549991607666 -12.005000114440918,-14.255000114440918 -12.005000114440918,-14.255000114440918 C-12.005000114440918,-14.255000114440918 -21.30500030517578,-6.054999828338623 -21.30500030517578,-6.054999828338623 C-21.30500030517578,-6.054999828338623 -9.78499984741211,20.7549991607666 -9.78499984741211,20.7549991607666 C-9.78499984741211,20.7549991607666 6.605000019073486,13.515000343322754 6.605000019073486,13.515000343322754 C6.605000019073486,13.515000343322754 21.30500030517578,2.2850000858306885 21.30500030517578,2.2850000858306885 C21.30500030517578,2.2850000858306885 4.315000057220459,-20.7549991607666 4.315000057220459,-20.7549991607666z"></path></g><g opacity="1" transform="matrix(1,0,0,1,170.28500366210938,261.9200134277344)"><path fill="rgb(138,102,81)" fill-opacity="1" d=" M15.545000076293945,-10.380000114440918 C15.545000076293945,-10.380000114440918 9.265000343322754,10.380000114440918 9.265000343322754,10.380000114440918 C9.265000343322754,10.380000114440918 -15.545000076293945,8.09000015258789 -15.545000076293945,8.09000015258789 C-15.545000076293945,8.09000015258789 15.545000076293945,-10.380000114440918 15.545000076293945,-10.380000114440918z"></path></g></g></g><g transform="matrix(1,0.0000018660173282114556,-0.0000018660173282114556,1,0.75,-0.25014495849609375)" opacity="1" style="display: block;"><g opacity="1" transform="matrix(1,0,0,1,126.41500091552734,221.56500244140625)"><path fill="rgb(80,169,170)" fill-opacity="1" d=" M-42.42499923706055,-1.3250000476837158 C-42.42499923706055,-1.3250000476837158 16.80500030517578,21.635000228881836 16.80500030517578,21.635000228881836 C16.80500030517578,21.635000228881836 42.42499923706055,6.934999942779541 42.42499923706055,6.934999942779541 C42.42499923706055,6.934999942779541 25.735000610351562,-21.635000228881836 25.735000610351562,-21.635000228881836 C25.735000610351562,-21.635000228881836 -42.42499923706055,-1.3250000476837158 -42.42499923706055,-1.3250000476837158z"></path></g></g><g transform="matrix(0.9913597702980042,-0.13117115199565887,0.13117115199565887,0.9913597702980042,-42.75975036621094,30.57349395751953)" opacity="1" style="display: none;"><g opacity="1" transform="matrix(1,0,0,1,0,0)"><g opacity="1" transform="matrix(1.0931273698806763,0,0,1.0931273698806763,281.3529968261719,97.0479965209961)"><path fill="rgb(43,43,43)" fill-opacity="1" d=" M0.027000000700354576,-4.418000221252441 C-2.2860000133514404,-4.4679999351501465 -4.202000141143799,-2.632999897003174 -4.252999782562256,-0.3199999928474426 C-4.254000186920166,-0.2590000033378601 -4.254000186920166,-0.19900000095367432 -4.252999782562256,-0.1379999965429306 C-4.368000030517578,2.2279999256134033 -2.5409998893737793,4.239999771118164 -0.17499999701976776,4.354000091552734 C2.191999912261963,4.4679999351501465 4.203000068664551,2.6429998874664307 4.316999912261963,0.2759999930858612 C4.323999881744385,0.1379999965429306 4.323999881744385,0 4.316999912261963,-0.1379999965429306 C4.368000030517578,-2.4509999752044678 2.5329999923706055,-4.368000030517578 0.21899999678134918,-4.418000221252441 C0.1550000011920929,-4.419000148773193 0.09099999815225601,-4.419000148773193 0.027000000700354576,-4.418000221252441z"></path></g><g opacity="1" transform="matrix(1.0931273698806763,0,0,1.0931273698806763,250.57200622558594,88.56099700927734)"><path fill="rgb(43,43,43)" fill-opacity="1" d=" M0.017999999225139618,-4.310999870300293 C-2.368000030517578,-4.322000026702881 -4.311999797821045,-2.3970000743865967 -4.322999954223633,-0.010999999940395355 C-4.322999954223633,-0.010999999940395355 -4.322999954223633,-0.0010000000474974513 -4.322999954223633,-0.0010000000474974513 C-4.323999881744385,2.384999990463257 -2.390000104904175,4.320000171661377 -0.004000000189989805,4.321000099182129 C2.38100004196167,4.322000026702881 4.315999984741211,2.3889999389648438 4.316999912261963,0.003000000026077032 C4.316999912261963,0.003000000026077032 4.316999912261963,-0.0010000000474974513 4.316999912261963,-0.0010000000474974513 C4.322999954223633,-2.375999927520752 2.4019999504089355,-4.306000232696533 0.027000000700354576,-4.310999870300293 C0.027000000700354576,-4.310999870300293 0.017999999225139618,-4.310999870300293 0.017999999225139618,-4.310999870300293z"></path></g></g></g><g style="display: block;" transform="matrix(1,-0.000002743314325925894,0.000002743314325925894,1,0.7493896484375,-0.2495269775390625)" opacity="1"><g opacity="1" transform="matrix(1,0,0,1,0,0)"><g opacity="1" transform="matrix(1,0,0,1,281.3529968261719,97.0479965209961)"><path fill="rgb(43,43,43)" fill-opacity="1" d=" M0.027000000700354576,-4.418000221252441 C-2.2860000133514404,-4.4679999351501465 -4.202000141143799,-2.632999897003174 -4.252999782562256,-0.3199999928474426 C-4.254000186920166,-0.2590000033378601 -4.254000186920166,-0.19900000095367432 -4.252999782562256,-0.1379999965429306 C-4.368000030517578,2.2279999256134033 -2.5409998893737793,4.239999771118164 -0.17499999701976776,4.354000091552734 C2.191999912261963,4.4679999351501465 4.203000068664551,2.6429998874664307 4.316999912261963,0.2759999930858612 C4.323999881744385,0.1379999965429306 4.323999881744385,0 4.316999912261963,-0.1379999965429306 C4.368000030517578,-2.4509999752044678 2.5329999923706055,-4.368000030517578 0.21899999678134918,-4.418000221252441 C0.1550000011920929,-4.419000148773193 0.09099999815225601,-4.419000148773193 0.027000000700354576,-4.418000221252441z"></path></g><g opacity="1" transform="matrix(1,0,0,1,250.57200622558594,88.56099700927734)"><path fill="rgb(43,43,43)" fill-opacity="1" d=" M0.017999999225139618,-4.310999870300293 C-2.368000030517578,-4.322000026702881 -4.311999797821045,-2.3970000743865967 -4.322999954223633,-0.010999999940395355 C-4.322999954223633,-0.010999999940395355 -4.322999954223633,-0.0010000000474974513 -4.322999954223633,-0.0010000000474974513 C-4.323999881744385,2.384999990463257 -2.390000104904175,4.320000171661377 -0.004000000189989805,4.321000099182129 C2.38100004196167,4.322000026702881 4.315999984741211,2.3889999389648438 4.316999912261963,0.003000000026077032 C4.316999912261963,0.003000000026077032 4.316999912261963,-0.0010000000474974513 4.316999912261963,-0.0010000000474974513 C4.322999954223633,-2.375999927520752 2.4019999504089355,-4.306000232696533 0.027000000700354576,-4.310999870300293 C0.027000000700354576,-4.310999870300293 0.017999999225139618,-4.310999870300293 0.017999999225139618,-4.310999870300293z"></path></g></g></g><g transform="matrix(0.9996634125709534,-0.02594541385769844,0.02594541385769844,0.9996634125709534,197.99801635742188,199.89547729492188)" opacity="1" style="display: none;"><g opacity="1" transform="matrix(1,0,0,1,0,0)"><path stroke-linecap="butt" stroke-linejoin="miter" fill-opacity="0" stroke-miterlimit="4" stroke="rgb(43,43,43)" stroke-opacity="1" stroke-width="4" d=" M12.5,-111.5 C12.5,-111.5 17.75,-108.875 17.75,-108.875 C17.75,-108.875 22.25,-110.25 22.25,-110.25"></path></g><g opacity="1" transform="matrix(1,0,0,1,0,0)"><path stroke-linecap="butt" stroke-linejoin="miter" fill-opacity="0" stroke-miterlimit="4" stroke="rgb(43,43,43)" stroke-opacity="1" stroke-width="4" d=" M45.125,-106.125 C45.125,-106.125 49.75,-102.875 49.75,-102.875 C49.75,-102.875 54.25,-105.125 54.25,-105.125"></path></g></g><g transform="matrix(0.9927954077720642,0.11982221901416779,-0.11982221901416779,0.9927954077720642,219.36093139648438,199.41087341308594)" opacity="1" style="display: none;"><g opacity="1" transform="matrix(1,0,0,1,0,0)"><path stroke-linecap="butt" stroke-linejoin="miter" fill-opacity="0" stroke-miterlimit="4" stroke="rgb(43,43,43)" stroke-opacity="1" stroke-width="4" d=" M12.5,-111.5 C12.5,-111.5 17.75,-108.875 17.75,-108.875 C17.75,-108.875 22.25,-110.25 22.25,-110.25"></path></g></g></g></svg>